<svg width="216" height="270" viewBox="0 0 216 270" fill="none" xmlns="http://www.w3.org/2000/svg">
<path d="M108 135C115.425 135 121.781 132.356 127.069 127.069C132.356 121.781 135 115.425 135 108C135 100.575 132.356 94.2188 127.069 88.9313C121.781 83.6438 115.425 81 108 81C100.575 81 94.2188 83.6438 88.9313 88.9313C83.6438 94.2188 81 100.575 81 108C81 115.425 83.6438 121.781 88.9313 127.069C94.2188 132.356 100.575 135 108 135ZM108 270C71.775 239.175 44.7188 210.544 26.8313 184.106C8.94375 157.669 0 133.2 0 110.7C0 76.95 10.8563 50.0625 32.5688 30.0375C54.2813 10.0125 79.425 0 108 0C136.575 0 161.719 10.0125 183.431 30.0375C205.144 50.0625 216 76.95 216 110.7C216 133.2 207.056 157.669 189.169 184.106C171.281 210.544 144.225 239.175 108 270Z" fill="#6750A4"/>
</svg>
